<?xml version="1.0" encoding="utf-8"?>
<!-- Generator: Adobe Illustrator 26.0.1, SVG Export Plug-In . SVG Version: 6.00 Build 0)  -->
<svg version="1.1" id="Layer_1" xmlns="http://www.w3.org/2000/svg" xmlns:xlink="http://www.w3.org/1999/xlink" x="0px" y="0px"
     viewBox="0 0 1000 1000" style="enable-background:new 0 0 1000 1000;" xml:space="preserve">
<style type="text/css">
	.st0 {
        fill: url(#SVGID_1_);
    }

    .st1 {
        fill: #060114;
    }

    .st2 {
        fill: url(#SVGID_00000025418363017263596450000012673336439183413680_);
    }

    .st3 {
        fill: #F2F2F2;
    }
</style>
    <rect class="st1" width="1000" height="1000"/>
    <radialGradient id="SVGID_1_" cx="241.1868" cy="271.7706" r="951.0569" gradientUnits="userSpaceOnUse">
	<stop offset="0" style="stop-color:#FFFFFF"/>
        <stop offset="0.4697" style="stop-color:#804CD3"/>
        <stop offset="1" style="stop-color:#0001FC"/>
</radialGradient>
    <path class="st0" d="M565.22,370.12H433.96c-32.25,0-58.49,26.24-58.49,58.49v131.26c0,32.25,26.24,58.49,58.49,58.49h131.26
	c32.25,0,58.49-26.24,58.49-58.49V428.61C623.72,396.36,597.47,370.12,565.22,370.12z M618.07,456.32l-48.55,46.93
	c-1.08,1.04-2.82,0.93-3.76-0.25l-31-39.09c-2.07-2.62-5.98-2.82-8.31-0.43L396.22,596.82c-9.34-9.54-15.11-22.58-15.11-36.95
	V428.61c0-29.14,23.71-52.85,52.85-52.85h131.26c29.14,0,52.85,23.71,52.85,52.85V456.32z M444.02,410.48v24.51
	c0,4.01-3.25,7.26-7.26,7.26h-24.51c-4.01,0-7.26-3.25-7.26-7.26v-24.51c0-4.01,3.25-7.26,7.26-7.26h24.51
	C440.76,403.22,444.02,406.47,444.02,410.48z M424.5,470.59v4.99c0,4.01-3.25,7.26-7.26,7.26h-4.99c-4.01,0-7.26-3.25-7.26-7.26
	v-4.99c0-4.01,3.25-7.26,7.26-7.26h4.99C421.24,463.33,424.5,466.58,424.5,470.59z M472.7,459.63v4.99c0,4.01-3.25,7.26-7.26,7.26
	h-4.99c-4.01,0-7.26-3.25-7.26-7.26v-4.99c0-4.01,3.25-7.26,7.26-7.26h4.99C469.45,452.37,472.7,455.62,472.7,459.63z
	 M484.85,410.48v4.99c0,4.01-3.25,7.26-7.26,7.26h-4.99c-4.01,0-7.26-3.25-7.26-7.26v-4.99c0-4.01,3.25-7.26,7.26-7.26h4.99
	C481.6,403.22,484.85,406.47,484.85,410.48z M299.66,507.77V308.42c0-4.05,3.29-7.34,7.34-7.34h219.06c4.05,0,7.34,3.29,7.34,7.34
	v43c0,1.4-1.14,2.54-2.54,2.54s-2.54-1.14-2.54-2.54v-43c0-1.25-1.01-2.26-2.26-2.26H307c-1.25,0-2.26,1.01-2.26,2.26v199.35
	c0,1.25,1.01,2.26,2.26,2.26h45.39c1.4,0,2.54,1.14,2.54,2.54c0,1.4-1.14,2.54-2.54,2.54H307
	C302.95,515.12,299.66,511.82,299.66,507.77z M700.72,308.42v105.13c0,4.05-3.29,7.34-7.34,7.34h-43.8c-1.4,0-2.54-1.14-2.54-2.54
	s1.14-2.54,2.54-2.54h43.8c1.25,0,2.26-1.01,2.26-2.26V308.42c0-1.25-1.01-2.26-2.26-2.26H572.31c-1.25,0-2.26,1.01-2.26,2.26v43.8
	c0,1.4-1.14,2.54-2.54,2.54s-2.54-1.14-2.54-2.54v-43.8c0-4.05,3.29-7.34,7.34-7.34h121.06
	C697.42,301.08,700.72,304.38,700.72,308.42z M380.83,697.21c0,1.4-1.14,2.54-2.54,2.54H307c-4.05,0-7.34-3.29-7.34-7.34V554.62
	c0-4.05,3.29-7.34,7.34-7.34h47.78c1.4,0,2.54,1.14,2.54,2.54s-1.14,2.54-2.54,2.54H307c-1.25,0-2.26,1.01-2.26,2.26v137.79
	c0,1.25,1.01,2.26,2.26,2.26h71.29C379.69,694.67,380.83,695.81,380.83,697.21z M616.09,629.34H419.54c-4.05,0-7.34,3.29-7.34,7.34
	v55.73c0,4.05,3.29,7.34,7.34,7.34h196.55c4.05,0,7.34-3.29,7.34-7.34v-55.73C623.43,632.63,620.14,629.34,616.09,629.34z
	 M618.35,692.41c0,1.25-1.01,2.26-2.26,2.26H419.54c-1.25,0-2.26-1.01-2.26-2.26v-55.73c0-1.25,1.01-2.26,2.26-2.26h196.55
	c1.25,0,2.26,1.01,2.26,2.26V692.41z M693.38,449.83h-37.8c-4.05,0-7.34,3.29-7.34,7.34v235.24c0,4.05,3.29,7.34,7.34,7.34h37.8
	c4.05,0,7.34-3.29,7.34-7.34V457.17C700.72,453.13,697.42,449.83,693.38,449.83z M695.64,692.41c0,1.25-1.01,2.26-2.26,2.26h-37.8
	c-1.25,0-2.26-1.01-2.26-2.26V457.17c0-1.25,1.01-2.26,2.26-2.26h37.8c1.25,0,2.26,1.02,2.26,2.26V692.41z"/>
</svg>
